<?xml version="1.0" standalone="no"?>
<!DOCTYPE svg PUBLIC "-//W3C//DTD SVG 20010904//EN"
 "http://www.w3.org/TR/2001/REC-SVG-20010904/DTD/svg10.dtd">
<svg version="1.0" xmlns="http://www.w3.org/2000/svg"
 width="518.000000pt" height="518.000000pt" viewBox="0 0 518.000000 518.000000"
 preserveAspectRatio="xMidYMid meet">
<metadata>
Created by potrace 1.11, written by Peter Selinger 2001-2013
</metadata>
<g transform="translate(0.000000,518.000000) scale(0.100000,-0.100000)"
fill="#000000" stroke="none">
<path d="M3635 5154 c-22 -13 -58 -33 -80 -45 -22 -12 -51 -30 -65 -39 -14
-10 -126 -78 -250 -151 -124 -73 -290 -172 -370 -219 -80 -48 -269 -160 -420
-250 -151 -90 -318 -189 -370 -220 -52 -32 -111 -67 -130 -78 -19 -11 -150
-88 -290 -172 -140 -84 -271 -162 -290 -173 -39 -22 -303 -179 -309 -183 -2
-2 -4 -400 -5 -884 l-1 -880 30 0 c46 -1 296 -11 605 -25 293 -13 433 -18 592
-19 l177 -1 30 30 c42 39 54 91 48 200 -7 135 -25 183 -78 211 -42 21 -99 21
-574 -1 -177 -9 -302 -5 -351 10 -84 25 -149 104 -176 215 -29 119 -32 482 -5
592 35 141 108 254 204 316 27 17 170 85 318 150 149 66 297 132 330 147 33
15 74 33 90 40 17 7 50 22 75 33 44 19 637 281 695 307 17 7 55 24 85 38 30
13 105 46 165 72 61 26 142 62 180 79 39 18 112 50 163 72 l93 39 -6 90 c-3
50 -8 104 -10 120 -2 17 -7 66 -10 110 -6 78 -9 116 -20 222 -3 28 -7 85 -10
125 -6 75 -14 140 -18 144 -1 1 -20 -9 -42 -22z"/>
<path d="M3730 3684 c-41 -14 -82 -27 -90 -29 -17 -4 -1279 -398 -1683 -524
-142 -45 -275 -92 -295 -106 -20 -14 -48 -41 -62 -62 -22 -32 -25 -48 -25
-117 0 -65 4 -86 20 -108 23 -32 82 -48 135 -37 19 4 49 10 65 12 31 5 79 13
130 22 17 3 46 8 65 11 34 4 120 19 170 29 14 3 45 8 70 11 25 3 52 7 60 9 8
2 38 7 65 11 28 3 68 9 91 13 45 9 162 7 210 -3 195 -39 327 -188 389 -442 23
-94 28 -121 41 -244 8 -73 8 -300 0 -365 -25 -204 -101 -351 -222 -428 -22
-14 -74 -36 -115 -48 -65 -21 -94 -24 -244 -24 -169 0 -325 21 -622 80 -39 8
-88 18 -109 21 -42 6 -51 8 -154 29 -41 8 -91 17 -110 21 -96 16 -146 25 -270
48 -74 14 -145 28 -158 30 -13 3 -22 0 -23 -7 -1 -14 -1 -436 0 -454 1 -7 22
-19 49 -27 26 -8 153 -51 282 -96 129 -45 352 -122 495 -172 143 -49 298 -103
345 -120 47 -16 90 -31 95 -32 6 -2 17 -6 25 -9 14 -5 122 -43 455 -157 83
-28 200 -69 260 -90 61 -21 178 -62 260 -90 234 -81 394 -136 538 -187 91 -32
153 -48 201 -51 l69 -4 -7 113 c-3 63 -8 130 -10 149 -4 32 -13 130 -21 240
-3 25 -7 68 -9 95 -3 28 -8 84 -11 125 -3 41 -7 89 -9 105 -3 17 -7 68 -11
115 -3 47 -8 101 -10 120 -3 19 -7 64 -10 100 -3 36 -7 92 -10 125 -3 33 -7
85 -10 115 -9 101 -15 175 -20 220 -3 25 -7 77 -10 115 -3 39 -7 93 -10 120
-7 71 -13 147 -21 240 -3 44 -8 88 -10 99 -2 10 -6 62 -9 115 -4 53 -8 107
-10 121 -2 14 -7 61 -10 105 -4 44 -8 96 -10 115 -2 19 -6 71 -10 115 -4 44
-8 95 -11 114 -2 18 -6 65 -9 105 -6 77 -12 153 -20 231 -3 28 -7 79 -10 115
-3 36 -7 85 -10 110 -2 25 -7 78 -10 119 -5 67 -15 144 -18 148 -1 0 -36 -10
-77 -23z"/>
</g>
</svg>
